<svg version="1.1" xmlns="http://www.w3.org/2000/svg" viewBox="0 0 1003.2272727272725 516.3019480519479" width="3009.6818181818176" height="1548.9058441558436" filter="invert(93%) hue-rotate(180deg)">
  <!-- svg-source:excalidraw -->

  <defs>
    <style>
      @font-face {
        font-family: "Virgil";
        src: url("https://excalidraw.com/Virgil.woff2");
      }
      @font-face {
        font-family: "Cascadia";
        src: url("https://excalidraw.com/Cascadia.woff2");
      }
    </style>
  </defs>
  <rect x="0" y="0" width="1003.2272727272725" height="516.3019480519479" fill="#ffffff"></rect><g stroke-linecap="round" transform="translate(263.6136363636362 152.89285714285694) rotate(0 110.02272727272725 176.70454545454544)"><path d="M-0.49 -3.28 C61.73 0.21, 119.7 2.79, 218.6 0.66 M-1.68 -1.24 C65.36 -0.64, 129.38 0.27, 221.6 0.53 M218.34 1.71 C218.72 116.01, 220.63 234.88, 217.96 354.91 M218.95 0.44 C217.83 91.78, 218.14 186.51, 219.71 354.23 M218.93 355.27 C168.01 355.86, 116.47 352.67, -2.34 352.14 M220.84 353.24 C161.52 351.21, 102.15 351.37, 0.35 352.7 M-0.7 355.36 C-6.34 251.49, -2.39 145.29, -2.38 -2.03 M-0.49 354.2 C2.89 240.1, 3.37 129.33, -0.55 0.86" stroke="#000000" stroke-width="2" fill="none"></path></g><g transform="translate(274.5681818181817 165.89285714285694) rotate(0 87.5 12.5)"><text x="0" y="18" font-family="Virgil, Segoe UI Emoji" font-size="20px" fill="#000000" text-anchor="start" style="white-space: pre;" direction="ltr">K3S Master Node</text></g><g transform="translate(263.5681818181817 117.39285714285694) rotate(0 83.5 12.5)"><text x="0" y="18" font-family="Virgil, Segoe UI Emoji" font-size="20px" fill="#000000" text-anchor="start" style="white-space: pre;" direction="ltr">public IP a.b.c.d </text></g><g stroke-linecap="round" transform="translate(506.4431818181819 43.125) rotate(0 90.625 17.96875)"><path d="M2.63 2.47 C50.82 -0.72, 95.58 3.54, 183.74 2.16 M1.56 -2 C65.69 3.46, 133.59 4.32, 182.83 1.59 M182.29 -1.52 C183.34 11.41, 184.4 21.61, 181.09 39.18 M179.72 1.19 C182.84 10.49, 181.9 19.41, 181.4 34.18 M179.27 36.34 C120.91 39.97, 58.83 35.97, 1.22 32.17 M182.02 35.87 C124.61 34.99, 68.19 37.17, 0.96 37.1 M-0.19 38.41 C4.51 24.42, 1.03 8.15, -0.2 2.29 M-1.18 35.59 C-0.03 20.5, 2.1 6.69, 0.2 -0.01" stroke="#000000" stroke-width="1" fill="none"></path></g><g transform="translate(534.880681818182 50.46875) rotate(0 55 12.5)"><text x="55" y="18" font-family="Virgil, Segoe UI Emoji" font-size="20px" fill="#000000" text-anchor="middle" style="white-space: pre;" direction="ltr">nip.io (DNS)</text></g><g stroke-linecap="round"><g transform="translate(539.9961252579765 86.25) rotate(0 -53.41822675869514 20.684771280490068)"><path d="M1.32 1.32 C-16.88 8.22, -88.33 35.17, -106.49 41.8 M-1.41 -0.43 C-20.14 5.69, -90.14 31.91, -108.16 38.06" stroke="#000000" stroke-width="1" fill="none"></path></g><g transform="translate(539.9961252579765 86.25) rotate(0 -53.41822675869514 20.684771280490068)"><path d="M-83.21 20.39 C-90.86 26.57, -101.03 31.45, -106.13 38.89 M-84.99 17.81 C-94.9 27.62, -102.95 32.09, -108.08 36.95" stroke="#000000" stroke-width="1" fill="none"></path></g><g transform="translate(539.9961252579765 86.25) rotate(0 -53.41822675869514 20.684771280490068)"><path d="M-76.27 39.7 C-86.73 38.28, -99.66 35.48, -106.13 38.89 M-78.05 37.12 C-90.39 39.78, -101.06 36.98, -108.08 36.95" stroke="#000000" stroke-width="1" fill="none"></path></g></g><g stroke-linecap="round" transform="translate(737.068181818182 10) rotate(0 104.53125 17.1875)"><path d="M-3.41 -3.45 C68.46 1.6, 133.29 1.7, 205.98 -0.98 M0.55 -1.74 C63.34 4.12, 129.24 3.91, 207.48 1.69 M205.31 1.92 C206.74 6.65, 211.77 21.75, 205.91 32.72 M210.95 -1.88 C207.88 10.14, 207.17 20.73, 207.96 35.91 M207.36 32.87 C161.85 36.15, 120.5 38.55, -2.16 37.63 M208.45 33.59 C148.65 36.25, 90.55 36.13, -1.54 34.18 M1.63 31.05 C-3 20.74, -1.48 10.1, -2.89 -3.99 M0.56 32.47 C-1.67 25.76, -1.24 18.29, -1.57 -1.82" stroke="#087f5b" stroke-width="1" fill="none"></path></g><g transform="translate(744.568181818182 14.4375) rotate(0 86 12.5)"><text x="0" y="18" font-family="Virgil, Segoe UI Emoji" font-size="20px" fill="#087f5b" text-anchor="start" style="white-space: pre;" direction="ltr">gitlab.a.b.c.d.nip.io</text></g><g stroke-linecap="round" transform="translate(723.786931818182 56.25) rotate(0 125.9375 17.1875)"><path d="M-2.74 -0.69 C78 -0.42, 155.19 -2.32, 254.55 -1.68 M-0.31 -0.94 C68.87 1.12, 134.46 1.83, 250.95 -0.3 M248.35 -2.4 C249.45 9.25, 250.44 21.45, 252.91 35.71 M250.4 1.06 C250.73 10.66, 249.74 23.11, 251.37 35.21 M249.24 34.15 C160.44 36.87, 70.5 34.12, -1.48 34.21 M251.86 35.7 C190.27 31.22, 130.95 30.93, -0.34 34.88 M-0.47 34.2 C-2.48 24.12, 3.52 8.06, 2.45 -0.21 M0.76 33.01 C1.03 26.01, 0.85 21.37, -1.63 -1.35" stroke="#087f5b" stroke-width="1" fill="none"></path></g><g transform="translate(743.786931818182 60.0625) rotate(0 95.5 12.5)"><text x="0" y="18" font-family="Virgil, Segoe UI Emoji" font-size="20px" fill="#087f5b" text-anchor="start" style="white-space: pre;" direction="ltr">registry.a.b.c.d.nip.io</text></g><g stroke-linecap="round" transform="translate(732.224431818182 104.375) rotate(0 104.53125 17.1875)"><path d="M1.95 -3.45 C41.33 -3.53, 85.89 -6.03, 210.27 2.83 M0.14 -1.28 C52.82 2.69, 108.8 2.71, 207.56 0.33 M207.66 -1.07 C206.36 11.68, 209.38 25.17, 205.57 33.46 M210.98 -1.17 C208.61 8.53, 210.26 16.62, 209.65 35.35 M207 37.19 C161.08 32.99, 112.57 32.65, -1.09 33 M208.21 35.05 C131.9 32.5, 57.68 32.16, 0.54 35.11 M-2.04 36.66 C3.54 26.51, -3.16 18.84, 2.13 -0.62 M0.67 36.07 C-1.19 26.09, 1.03 15.45, -0.5 0.27" stroke="#087f5b" stroke-width="1" fill="none"></path></g><g transform="translate(739.724431818182 108.8125) rotate(0 79.5 12.5)"><text x="0" y="18" font-family="Virgil, Segoe UI Emoji" font-size="20px" fill="#087f5b" text-anchor="start" style="white-space: pre;" direction="ltr">minio.a.b.c.d.nip.io</text></g><g stroke-linecap="round"><g transform="translate(731.755681818182 24.286341117885026) rotate(0 -17.524090761095295 11.987053397969634)"><path d="M1.16 1.71 C-4.76 5.69, -27.96 20.31, -33.45 23.8 M-1.66 0.17 C-8.22 3.34, -30.95 15.34, -36.2 19.65" stroke="#087f5b" stroke-width="1" fill="none"></path></g><g transform="translate(731.755681818182 24.286341117885026) rotate(0 -17.524090761095295 11.987053397969634)"><path d="M-21.9 2.63 C-26.53 10.92, -32.56 13.73, -34.19 19.96 M-26.12 2.41 C-29.36 10.53, -33.8 17, -36.64 20.88" stroke="#087f5b" stroke-width="1" fill="none"></path></g><g transform="translate(731.755681818182 24.286341117885026) rotate(0 -17.524090761095295 11.987053397969634)"><path d="M-14.6 13.94 C-21.95 18.08, -30.69 16.68, -34.19 19.96 M-18.82 13.73 C-24.7 17.83, -31.74 20.26, -36.64 20.88" stroke="#087f5b" stroke-width="1" fill="none"></path></g></g><g stroke-linecap="round"><g transform="translate(722.380681818182 71.875) rotate(0 -14.376500111073256 -3.66625102609396)"><path d="M2.48 1.56 C-2.82 1.17, -26.37 -3.17, -31.24 -4.39 M0.39 -0.05 C-4.15 -1.14, -21.69 -8.43, -26.35 -8.9" stroke="#087f5b" stroke-width="1" fill="none"></path></g><g transform="translate(722.380681818182 71.875) rotate(0 -14.376500111073256 -3.66625102609396)"><path d="M-10.32 -12.97 C-15.61 -7.65, -21.61 -7.13, -24.15 -8.97 M-12.61 -9.37 C-14.05 -8.69, -17.17 -9.65, -27.3 -8.03" stroke="#087f5b" stroke-width="1" fill="none"></path></g><g transform="translate(722.380681818182 71.875) rotate(0 -14.376500111073256 -3.66625102609396)"><path d="M-12.93 -3.43 C-17.25 -1.2, -22.41 -3.74, -24.15 -8.97 M-15.22 0.17 C-16.2 -1.1, -18.8 -3.97, -27.3 -8.03" stroke="#087f5b" stroke-width="1" fill="none"></path></g></g><g stroke-linecap="round"><g transform="translate(720.193181818182 121.875) rotate(0 -12.868560458719742 -22.374617034941913)"><path d="M-0.22 0.9 C-4.21 -6.42, -19.06 -38.03, -23.45 -45.65 M-3.78 -1.08 C-8.16 -7.81, -22.61 -35.62, -25.52 -42.38" stroke="#087f5b" stroke-width="1" fill="none"></path></g><g transform="translate(720.193181818182 121.875) rotate(0 -12.868560458719742 -22.374617034941913)"><path d="M-5.97 -24.22 C-13.77 -34.29, -18.38 -37.29, -29.51 -38.52 M-5.95 -25 C-13.33 -29.6, -16.72 -32.5, -27.25 -42.61" stroke="#087f5b" stroke-width="1" fill="none"></path></g><g transform="translate(720.193181818182 121.875) rotate(0 -12.868560458719742 -22.374617034941913)"><path d="M-21.64 -16.63 C-24.37 -29.08, -24 -34.5, -29.51 -38.52 M-21.61 -17.42 C-24.8 -24.34, -23.89 -29.32, -27.25 -42.61" stroke="#087f5b" stroke-width="1" fill="none"></path></g></g><g stroke-linecap="round" transform="translate(10 152.78409090909076) rotate(0 110.02272727272722 176.70454545454544)"><path d="M-0.1 0.02 C58.85 -2.79, 121.37 -5.02, 222.61 -1.8 M0.58 -0.51 C72.56 -3.54, 142.44 -2.09, 220.01 -0.17 M217.53 1.53 C220.79 133.22, 223.3 264.76, 222.19 354.5 M221.32 1.12 C216.04 138.03, 215.31 278.45, 219.06 352.35 M220.32 350.9 C155.36 348.24, 91.73 348.2, -0.3 351.66 M221.57 353.36 C172.87 351.8, 130.07 351.59, -0.44 354.28 M0.14 353.83 C-2.84 220.93, -2.26 92.73, -0.8 1.24 M0.38 352.39 C-1.11 257.87, -0.01 165.08, -0.44 0.3" stroke="#000000" stroke-width="2" fill="none"></path></g><g transform="translate(15.954545454545496 163.5113636363635) rotate(0 87.5 12.5)"><text x="0" y="18" font-family="Virgil, Segoe UI Emoji" font-size="20px" fill="#000000" text-anchor="start" style="white-space: pre;" direction="ltr">K3S Master Node</text></g><g stroke-linecap="round" transform="translate(522.7272727272727 149.14772727272714) rotate(0 110.02272727272725 176.70454545454544)"><path d="M-0.09 -3.27 C69.4 -1.17, 139.79 -4.24, 221.79 2.51 M0.29 0.09 C79.8 0.27, 162.47 -0.74, 220.88 -0.57 M218 0.31 C213.4 118.4, 216.57 230.85, 220.64 354.53 M220.8 -0.78 C215.02 139.89, 214.91 278.33, 219 354.06 M218.8 356.83 C137.82 352.99, 50.47 350.72, -0.72 352.39 M219.01 355 C134.92 350.85, 51.09 352.45, -0.36 354.75 M-0.25 354.5 C-5.26 215.74, -4.79 83.15, 0.93 -1.98 M-0.87 353.44 C0.56 239.69, 0.8 125.85, -1.16 -0.25" stroke="#000000" stroke-width="2" fill="none"></path></g><g transform="translate(533.6818181818182 162.14772727272714) rotate(0 87.5 12.5)"><text x="0" y="18" font-family="Virgil, Segoe UI Emoji" font-size="20px" fill="#000000" text-anchor="start" style="white-space: pre;" direction="ltr">K3S Master Node</text></g><g stroke-linecap="round" transform="translate(773.181818181818 151.4204545454545) rotate(0 110.02272727272725 176.70454545454544)"><path d="M1.73 0.07 C57.56 -3.57, 115.18 0.18, 218.37 -1.36 M-1.07 1.69 C53.39 -0.8, 107.06 1, 221.25 1.26 M217.79 -1.63 C222.54 103.52, 219.99 205.79, 219.37 354.1 M220.59 -0.39 C221.14 80.88, 219.92 164.97, 221.18 352.28 M217.26 351.84 C134.99 349.32, 49.63 348.2, -2.69 351.24 M218.6 352.66 C172.25 357.59, 122.34 357.44, 0.32 354.14 M-0.56 355.46 C1.63 234.87, -0.04 114.03, -2.51 -2.04 M0.26 354.61 C-2.67 233.5, -1.77 112.64, 0.07 -0.53" stroke="#000000" stroke-width="2" fill="none"></path></g><g transform="translate(784.1363636363635 164.4204545454545) rotate(0 79.5 12.5)"><text x="0" y="18" font-family="Virgil, Segoe UI Emoji" font-size="20px" fill="#000000" text-anchor="start" style="white-space: pre;" direction="ltr">K3S Agent Node</text></g><g stroke-linecap="round" transform="translate(41.840909090909065 199.48863636363632) rotate(0 444.3181818181818 28.409090909090907)"><path d="M-0.35 1.27 C298.91 6.25, 596.45 4.94, 887.08 -1.26 M0.16 0.75 C302.04 -0.33, 605.03 -0.69, 888.68 -0.33 M892.52 -3.6 C886.95 17.94, 890.18 30.39, 888.79 56.8 M888.99 1.6 C889.04 11.3, 887.15 24.73, 889 54.93 M888.98 58.23 C537.05 60.29, 187.71 60.82, -1.09 57.74 M889.02 56.14 C597.45 58.45, 305.68 58.12, -0.65 56.04 M2.42 55.56 C-1.86 38.26, 2 16.77, 1.52 -3.61 M-0.11 55.3 C0.1 35.93, -0.76 13.79, -1.35 -0.34" stroke="#5c940d" stroke-width="1" fill="none"></path></g><g transform="translate(350.4772727272727 218.215909090909) rotate(0 77.5 12.5)"><text x="0" y="18" font-family="Virgil, Segoe UI Emoji" font-size="20px" fill="#5c940d" text-anchor="start" style="white-space: pre;" direction="ltr">Traefik Ingress</text></g><g stroke-linecap="round" transform="translate(72.29545454545456 296.76136363636357) rotate(0 426.59090909090907 79.09090909090907)"><path d="M-0.28 -1.6 C261.48 6.01, 518.59 6.01, 853.6 0.26 M-0.23 0.76 C240.68 2.64, 481.07 3.08, 852.88 -0.5 M853.83 -3.43 C857.38 35.66, 851.2 64.97, 852.46 157.62 M851.71 -1.86 C855.15 43.44, 856.04 88.49, 852.64 157.16 M852.34 159.51 C664.21 159.15, 471.05 161.18, -0.75 157.2 M853.14 158.1 C593.31 152.27, 332.9 152.8, -0.1 158.23 M0.91 156.84 C2.66 112.03, -0.45 70.63, 2.67 2.34 M0.1 159.84 C0.07 127.12, 0.49 94.25, -1.23 -0.22" stroke="#5f3dc4" stroke-width="1" fill="none"></path></g><g transform="translate(293.6590909090908 346.8522727272727) rotate(0 194.64545454545487 26.590909090909122)"><text x="0" y="37.181818181818265" font-family="Virgil, Segoe UI Emoji" font-size="42.54545454545461px" fill="#5f3dc4" text-anchor="start" style="white-space: pre;" direction="ltr">GitLab Helm Chart</text></g></svg>
